<svg xmlns="http://www.w3.org/2000/svg" viewBox="0 0 900 520"><rect width="900" height="520" rx="30" fill="#eef5f8"/><ellipse cx="450" cy="260" rx="320" ry="175" fill="#75c7df" stroke="#0d638c" stroke-width="12"/><path d="M180 135c105-70 435-70 540 0" fill="none" stroke="#ddb038" stroke-width="16" stroke-linecap="round"/><path d="M180 385c105 70 435 70 540 0" fill="none" stroke="#0d638c" stroke-width="16" stroke-linecap="round"/><g font-family="Arial" font-size="32" font-weight="700" text-anchor="middle"><g fill="#493600"><circle cx="215" cy="120" r="30" fill="#ddb038"/><text x="215" y="131">1</text><circle cx="330" cy="90" r="30" fill="#ddb038"/><text x="330" y="101">2</text><circle cx="570" cy="90" r="30" fill="#ddb038"/><text x="570" y="101">7</text><circle cx="685" cy="120" r="30" fill="#ddb038"/><text x="685" y="131">9</text><circle cx="760" cy="190" r="30" fill="#ddb038"/><text x="760" y="201">10</text></g><g fill="#fff"><circle cx="215" cy="400" r="30" fill="#0d638c"/><text x="215" y="411">3</text><circle cx="330" cy="430" r="30" fill="#0d638c"/><text x="330" y="441">4</text><circle cx="450" cy="440" r="30" fill="#0d638c"/><text x="450" y="451">5</text><circle cx="570" cy="430" r="30" fill="#0d638c"/><text x="570" y="441">6</text><circle cx="685" cy="400" r="30" fill="#0d638c"/><text x="685" y="411">8</text></g></g><text x="450" y="250" font-family="Arial" font-size="44" font-weight="700" text-anchor="middle" fill="#073454">Peter-Beckmann-Teich</text><text x="450" y="292" font-family="Arial" font-size="24" text-anchor="middle" fill="#35566b">schematische Darstellung</text></svg>
