<svg xmlns="http://www.w3.org/2000/svg" viewBox="0 0 300 300" role="img" aria-labelledby="t d"><title id="t">Angelverein Eppertshausen</title><desc id="d">Stilisiertes Vereinslogo mit Fisch</desc><rect width="300" height="300" rx="48" fill="#fff"/><path d="M46 61 150 26l104 35v99c0 67-43 103-104 122C89 263 46 227 46 160Z" fill="#6fd43f" stroke="#173d1f" stroke-width="8"/><path d="M71 83h158v83c0 47-30 73-79 91-49-18-79-44-79-91Z" fill="#eef9e9"/><path d="M86 155c38-46 85-50 122-17l30-20-8 31 8 31-30-20c-37 33-84 29-122-17l-24 12 11-22-11-22Z" fill="#183247"/><circle cx="117" cy="137" r="5" fill="#fff"/><text x="150" y="73" text-anchor="middle" font-family="Arial" font-size="20" font-weight="700" fill="#173d1f">ANGELVEREIN</text><text x="150" y="96" text-anchor="middle" font-family="Arial" font-size="15" font-weight="700" fill="#173d1f">EPPERTSHAUSEN e. V.</text><text x="150" y="236" text-anchor="middle" font-family="Arial" font-size="19" font-weight="700" fill="#173d1f">1959</text></svg>
